<?xml version="1.0" standalone="no"?>
<!DOCTYPE svg PUBLIC "-//W3C//DTD SVG 20010904//EN"
 "http://www.w3.org/TR/2001/REC-SVG-20010904/DTD/svg10.dtd">
<svg version="1.0" xmlns="http://www.w3.org/2000/svg"
 width="700.000000pt" height="700.000000pt" viewBox="0 0 700.000000 700.000000"
 preserveAspectRatio="xMidYMid meet">
<metadata>
Created by potrace 1.14, written by Peter Selinger 2001-2017
</metadata>
<g transform="translate(0.000000,700.000000) scale(0.100000,-0.100000)"
fill="#000000" stroke="none">
<path d="M3230 6794 c-106 -10 -344 -47 -450 -70 -634 -142 -1199 -452 -1655
-909 -535 -536 -859 -1203 -961 -1981 -24 -179 -24 -599 0 -779 102 -780 428
-1449 970 -1990 556 -555 1279 -892 2069 -966 189 -17 594 -7 772 21 735 112
1376 432 1891 945 274 273 465 538 639 885 178 355 281 706 336 1145 19 150
16 580 -5 740 -53 405 -158 754 -332 1105 -455 913 -1284 1561 -2284 1784
-242 53 -375 68 -670 71 -151 1 -295 1 -320 -1z m465 -64 c711 -46 1368 -306
1912 -757 107 -89 330 -310 416 -413 401 -482 656 -1062 742 -1695 23 -166 31
-509 16 -687 -119 -1413 -1110 -2580 -2486 -2927 -266 -67 -501 -95 -795 -95
-294 0 -529 28 -795 95 -1376 347 -2367 1514 -2486 2927 -15 178 -7 521 16
687 88 644 348 1230 760 1715 92 108 295 308 405 400 332 276 760 503 1176
624 373 108 744 150 1119 126z"/>
<path d="M2223 4195 c-40 -17 -60 -48 -67 -105 -12 -98 43 -160 141 -160 101
0 153 47 153 140 0 58 -25 105 -65 124 -40 19 -119 20 -162 1z"/>
<path d="M3915 4127 c-82 -21 -161 -63 -214 -112 -60 -56 -67 -74 -47 -114 20
-38 85 -91 111 -91 11 0 40 14 65 31 103 69 183 90 244 65 118 -49 29 -193
-152 -247 -55 -16 -72 -41 -72 -102 0 -87 28 -117 112 -117 114 0 198 -47 218
-121 33 -120 -60 -209 -203 -196 -98 9 -138 27 -273 122 -34 24 -72 -33 -81
-119 -10 -94 40 -145 189 -197 114 -39 214 -52 292 -38 192 34 323 176 334
360 8 138 -46 243 -156 306 -26 15 -49 28 -51 29 -2 2 21 27 51 56 70 68 101
134 106 218 3 56 0 72 -25 120 -34 65 -93 113 -166 136 -68 21 -218 27 -282
11z"/>
<path d="M5036 4124 c-259 -63 -426 -305 -442 -644 -17 -339 148 -552 456
-591 222 -27 426 75 511 256 58 122 58 279 1 398 -50 103 -131 170 -251 207
-123 38 -290 19 -383 -45 -20 -14 -40 -25 -43 -25 -13 0 50 106 88 147 66 72
106 88 214 88 86 -1 97 -3 165 -38 40 -20 80 -37 89 -37 30 0 109 103 109 142
0 19 -67 82 -108 102 -101 51 -285 69 -406 40z m181 -565 c145 -44 180 -283
59 -403 -95 -96 -266 -84 -359 24 -162 190 48 455 300 379z"/>
<path d="M382 4108 c-9 -9 -12 -156 -12 -600 l0 -588 26 -10 c39 -15 713 -13
743 3 50 25 65 60 69 162 5 111 1 116 -78 90 -90 -30 -450 -47 -483 -22 -15
11 -17 28 -15 127 l3 115 181 3 c154 2 184 5 195 19 19 22 19 184 0 206 -11
14 -41 17 -195 19 l-181 3 0 125 0 125 130 3 c140 3 269 -10 336 -33 55 -20
69 -8 69 56 0 80 -20 150 -50 181 l-28 28 -349 0 c-258 0 -352 -3 -361 -12z"/>
<path d="M5822 4108 c-9 -9 -12 -88 -12 -294 l0 -282 30 -30 c16 -17 49 -38
73 -47 l44 -16 84 43 c82 42 86 43 181 43 108 0 135 -12 173 -76 30 -51 27
-160 -5 -219 -77 -138 -263 -144 -475 -16 -41 25 -81 43 -89 40 -22 -8 -49
-89 -50 -145 -1 -43 3 -52 39 -89 78 -80 228 -132 385 -133 266 -2 459 153
489 392 10 80 0 180 -24 237 -52 126 -172 212 -325 234 -63 9 -187 -4 -236
-25 l-34 -14 0 86 0 85 263 -3 c144 -2 268 0 275 4 17 12 16 158 -2 202 l-15
35 -378 0 c-282 0 -382 -3 -391 -12z"/>
<path d="M1503 3830 c-64 -29 -131 -77 -138 -100 -4 -13 2 -34 17 -58 23 -36
23 -42 28 -392 l5 -354 45 -14 c50 -15 165 -10 199 8 20 10 21 18 21 311 0
247 3 305 15 329 32 63 96 77 165 38 l39 -23 32 30 c49 46 110 146 107 174 -6
46 -117 83 -202 67 -20 -4 -65 -27 -101 -51 l-65 -43 -15 28 c-37 71 -78 84
-152 50z"/>
<path d="M3043 3831 c-96 -26 -146 -54 -210 -114 -61 -57 -115 -157 -133 -244
-7 -33 -11 -100 -8 -159 4 -87 9 -110 37 -170 68 -145 191 -229 376 -255 129
-18 294 26 350 93 38 45 62 167 35 183 -5 3 -40 -9 -77 -26 -56 -27 -84 -33
-154 -37 -100 -5 -145 7 -194 49 -53 47 -78 118 -77 224 0 133 35 210 114 251
43 22 125 17 186 -11 30 -14 60 -25 67 -25 19 0 77 69 99 118 l19 42 -23 25
c-62 66 -265 94 -407 56z"/>
<path d="M2197 3819 l-28 -11 3 -397 3 -397 27 -41 c33 -51 101 -85 169 -86
58 -1 114 33 167 102 46 61 41 85 -20 89 -80 5 -78 -3 -78 383 0 301 -2 338
-17 350 -20 17 -186 23 -226 8z"/>
<path d="M3342 2297 c-43 -16 -91 -63 -110 -107 -20 -49 -19 -148 3 -194 30
-62 106 -106 184 -106 54 1 119 33 127 65 3 14 4 28 2 31 -3 2 -25 -5 -49 -16
-24 -11 -54 -20 -66 -20 -41 0 -99 30 -117 61 -23 39 -24 134 -2 177 30 58
109 79 168 45 28 -17 30 -17 44 1 22 31 17 46 -21 62 -41 17 -117 17 -163 1z"/>
<path d="M3702 2295 c-29 -13 -60 -60 -48 -73 3 -3 25 3 49 12 80 30 151 13
159 -38 3 -17 -9 -23 -73 -41 -100 -28 -140 -52 -163 -98 -24 -49 -15 -94 25
-133 27 -26 37 -29 92 -29 40 1 74 7 95 19 30 15 36 16 50 3 30 -26 57 -28 80
-7 28 26 28 38 0 42 -22 3 -23 7 -28 138 -6 153 -16 181 -75 206 -43 18 -120
17 -163 -1z m168 -240 c0 -63 -1 -66 -32 -85 -63 -38 -148 -17 -148 36 0 50
24 69 125 103 54 17 55 16 55 -54z"/>
<path d="M3073 1989 c-31 -11 -33 -73 -3 -89 29 -15 59 -3 66 26 12 46 -21 79
-63 63z"/>
</g>
</svg>
