<?xml version="1.0" standalone="no"?>
<!DOCTYPE svg PUBLIC "-//W3C//DTD SVG 20010904//EN"
 "http://www.w3.org/TR/2001/REC-SVG-20010904/DTD/svg10.dtd">
<svg version="1.0" xmlns="http://www.w3.org/2000/svg"
 width="800.000000pt" height="800.000000pt" viewBox="0 0 800.000000 800.000000"
 preserveAspectRatio="xMidYMid meet">
<metadata>
Created by potrace 1.14, written by Peter Selinger 2001-2017
</metadata>
<g transform="translate(0.000000,800.000000) scale(0.100000,-0.100000)"
fill="#000000" stroke="none">
<path d="M0 4000 l0 -4000 4000 0 4000 0 0 4000 0 4000 -4000 0 -4000 0 0
-4000z m3235 1170 c33 -31 45 -77 34 -135 -16 -85 -74 -135 -157 -135 -46 0
-97 36 -113 79 -14 36 -1 115 25 153 46 70 157 89 211 38z m1902 -14 c183 -58
261 -262 171 -444 -33 -64 -137 -156 -229 -200 -43 -20 -78 -40 -78 -43 -1 -4
21 -9 48 -13 63 -8 182 -68 216 -108 128 -152 100 -405 -65 -581 -177 -190
-496 -251 -760 -146 -41 17 -80 36 -87 42 -15 16 47 373 65 371 7 -1 23 -2 37
-2 25 -2 25 -4 25 -85 0 -156 48 -241 153 -272 194 -58 353 59 403 295 33 153
-1 316 -75 370 -71 49 -161 61 -269 34 -35 -9 -66 -14 -68 -11 -3 3 2 31 11
64 l16 58 87 0 c103 1 153 14 218 58 91 61 137 181 113 295 -25 122 -157 181
-306 137 -67 -20 -123 -62 -162 -124 -34 -52 -48 -59 -81 -41 -17 9 -15 19 42
137 34 71 68 134 77 141 33 26 114 63 169 77 73 19 257 14 329 -9z m1321 13
c26 -7 51 -15 56 -20 9 -8 -29 -145 -44 -154 -5 -3 -27 8 -50 24 -112 81 -281
57 -379 -55 -75 -86 -161 -284 -202 -464 -10 -47 -19 -91 -19 -99 0 -7 26 11
58 40 179 164 438 158 562 -13 44 -60 64 -137 63 -243 0 -175 -51 -296 -177
-421 -140 -140 -249 -189 -416 -189 -94 0 -111 3 -165 28 -102 48 -176 134
-209 247 -72 241 -18 602 128 864 116 207 350 397 556 450 68 18 175 20 238 5z
m-4854 -20 c5 -4 -38 -300 -50 -346 -2 -8 -20 -13 -42 -13 l-39 0 5 94 c6 111
-4 127 -89 145 -116 25 -430 24 -456 -2 -5 -5 -93 -523 -93 -549 0 -17 19 -18
265 -18 146 0 265 -3 265 -7 0 -5 -6 -28 -14 -53 l-13 -45 -264 -5 -263 -5
-52 -310 c-28 -170 -51 -311 -49 -313 6 -7 162 -21 241 -22 104 0 280 16 336
31 44 11 50 21 93 148 l32 96 42 3 c37 3 42 1 38 -15 -3 -10 -18 -92 -33 -183
-15 -91 -32 -171 -37 -178 -9 -11 -123 -13 -598 -10 l-587 3 5 30 c3 17 7 31
8 32 1 2 25 7 54 13 75 14 88 24 106 83 17 55 198 1114 210 1229 7 64 6 67
-20 84 -19 12 -53 19 -111 22 -85 5 -89 7 -78 47 5 20 13 20 594 20 323 0 591
-3 594 -6z m5436 -25 c144 -30 435 -27 589 7 25 5 48 6 53 1 5 -5 -14 -55 -41
-114 l-50 -106 -83 -7 c-46 -4 -181 -5 -301 -3 -211 3 -218 2 -222 -17 -15
-63 -85 -408 -85 -416 0 -5 18 4 41 21 62 44 144 71 236 77 228 15 381 -77
449 -271 19 -53 19 -195 -1 -268 -57 -220 -243 -397 -465 -444 -150 -32 -347
-6 -483 63 -45 22 -48 27 -42 51 13 52 45 245 45 274 0 32 18 43 55 34 24 -6
25 -10 25 -75 0 -38 7 -88 15 -112 43 -121 183 -184 319 -145 154 45 267 276
252 513 -11 181 -90 266 -246 267 -93 1 -137 -20 -207 -98 -48 -55 -50 -55
-81 -44 -18 7 -32 17 -32 22 0 6 18 105 40 221 22 115 51 282 65 370 13 88 27
175 31 193 5 31 8 33 32 27 15 -4 56 -13 92 -21z m-4877 -451 c8 -10 18 -30
22 -44 6 -26 -26 -199 -69 -366 -13 -51 -21 -93 -17 -93 3 0 29 49 57 108 94
194 211 354 287 391 44 21 141 29 151 13 3 -5 -1 -33 -9 -63 -8 -29 -20 -99
-26 -154 -7 -55 -16 -103 -21 -106 -5 -3 -30 5 -55 18 -77 38 -139 26 -206
-41 -97 -97 -204 -378 -247 -648 -12 -74 -14 -78 -39 -78 -14 0 -69 -9 -121
-20 -131 -27 -133 -25 -92 117 113 387 173 752 127 769 -17 7 -90 -34 -139
-77 -19 -16 -36 -29 -39 -29 -3 0 -10 14 -16 30 -10 29 -8 32 47 76 93 73 227
163 284 189 63 29 99 32 121 8z m978 -4 c36 -36 22 -145 -46 -379 -123 -418
-138 -491 -103 -513 13 -9 35 -2 105 34 48 24 91 45 94 47 4 1 12 -11 19 -29
11 -26 11 -33 -1 -39 -8 -5 -63 -41 -124 -80 -252 -162 -346 -179 -375 -68
-17 62 0 157 81 450 79 288 91 354 65 364 -21 8 -80 -18 -159 -68 -32 -21 -59
-38 -61 -38 -2 0 -9 14 -15 30 -10 30 -8 32 52 76 113 83 281 191 332 212 65
28 109 28 136 1z m1113 -9 c60 -19 67 -24 63 -43 -3 -12 -19 -75 -36 -141 -17
-65 -31 -129 -31 -142 0 -21 -4 -24 -41 -24 l-41 0 6 73 c7 67 6 74 -16 94
-62 57 -176 85 -256 64 -91 -25 -151 -116 -196 -301 -65 -264 -61 -402 13
-480 45 -47 91 -58 176 -41 73 15 202 76 268 126 27 20 49 35 51 33 5 -7 26
-59 26 -64 0 -6 -152 -103 -230 -146 -217 -119 -414 -129 -527 -25 -74 68 -88
109 -87 262 1 108 6 147 28 230 40 149 93 251 164 316 72 66 301 204 374 224
71 20 203 13 292 -15z m-260 -1994 l33 -14 -17 -68 c-12 -46 -23 -70 -34 -72
-13 -3 -16 5 -16 38 0 37 -3 42 -35 56 -85 35 -133 2 -164 -114 -12 -43 -21
-104 -21 -136 0 -47 4 -61 25 -81 13 -14 33 -25 43 -25 31 0 84 21 129 51 29
19 45 24 49 17 10 -15 -37 -51 -120 -93 -181 -92 -291 11 -230 216 34 114 61
144 199 218 46 24 110 27 159 7z m445 3 c24 -9 39 -9 58 0 14 7 28 10 30 7 3
-3 -11 -71 -32 -153 -40 -160 -53 -243 -39 -243 5 0 24 9 42 20 40 25 42 25
42 1 0 -21 -104 -97 -146 -107 -56 -14 -66 33 -34 156 11 43 14 68 7 58 -7 -9
-32 -44 -56 -78 -80 -110 -184 -166 -225 -121 -16 18 -18 32 -14 99 4 44 17
110 31 152 21 61 35 83 74 118 99 92 180 119 262 91z m-967 -346 c25 -30 29
-52 14 -88 -24 -56 -107 -61 -127 -8 -12 31 4 88 29 103 27 15 68 12 84 -7z"/>
<path d="M5950 4398 c-107 -54 -166 -231 -159 -472 4 -96 8 -119 30 -161 53
-103 167 -135 260 -72 39 26 91 121 115 212 22 82 30 292 14 362 -28 127 -148
187 -260 131z"/>
<path d="M4271 2603 c-50 -50 -114 -298 -82 -317 52 -33 249 280 205 324 -5 5
-28 12 -51 16 -38 6 -45 3 -72 -23z"/>
</g>
</svg>
