<?xml version="1.0" standalone="no"?>
<!DOCTYPE svg PUBLIC "-//W3C//DTD SVG 20010904//EN"
 "http://www.w3.org/TR/2001/REC-SVG-20010904/DTD/svg10.dtd">
<svg version="1.0" xmlns="http://www.w3.org/2000/svg"
 width="900.000000pt" height="900.000000pt" viewBox="0 0 900.000000 900.000000"
 preserveAspectRatio="xMidYMid meet">
<metadata>
Created by potrace 1.14, written by Peter Selinger 2001-2017
</metadata>
<g transform="translate(0.000000,900.000000) scale(0.100000,-0.100000)"
fill="#000000" stroke="none">
<path d="M0 4500 l0 -4500 4500 0 4500 0 0 4500 0 4500 -4500 0 -4500 0 0
-4500z m2868 3307 c326 -114 523 -477 524 -965 1 -138 -1 -156 -19 -180 -28
-38 -74 -41 -100 -8 -17 21 -21 47 -26 163 -20 452 -158 713 -402 763 -234 48
-477 -152 -578 -475 -40 -131 -52 -218 -51 -385 1 -132 5 -170 28 -255 80
-309 274 -515 561 -596 44 -13 88 -29 97 -37 29 -24 39 -79 23 -118 -16 -38
-24 -40 -180 -48 -268 -14 -556 -109 -780 -258 -104 -69 -255 -215 -328 -316
-125 -173 -216 -396 -258 -628 -32 -176 -32 -506 0 -689 103 -594 440 -945
906 -945 120 0 262 25 377 66 77 28 226 100 288 139 37 23 37 24 44 107 53
626 239 1112 450 1173 69 20 119 9 168 -39 121 -117 124 -353 9 -641 -82 -203
-252 -454 -425 -625 l-76 -74 0 -121 c0 -291 36 -696 80 -897 25 -113 25 -113
0 -138 -26 -26 -63 -25 -94 2 -20 18 -29 43 -45 123 -42 217 -71 532 -71 782
l0 142 -97 -61 c-163 -103 -323 -169 -504 -210 -87 -19 -132 -23 -274 -23
-145 1 -183 4 -260 24 -489 127 -802 533 -900 1166 -23 146 -31 498 -16 636
34 301 138 597 289 824 208 312 500 520 859 611 53 13 98 26 100 28 2 2 -15
16 -37 31 -49 34 -146 136 -190 200 -245 357 -230 982 34 1379 129 193 326
341 523 391 90 23 259 14 351 -18z m2926 -2294 c26 -19 51 -49 71 -88 27 -53
30 -68 30 -154 0 -103 -20 -168 -68 -219 -56 -61 -146 -78 -217 -42 -132 67
-171 303 -74 449 61 93 170 116 258 54z m-1607 -480 c115 -60 177 -258 153
-493 -9 -83 -47 -261 -74 -347 -5 -15 6 -23 62 -42 113 -40 237 -109 281 -156
63 -68 66 -94 42 -334 -40 -395 -37 -583 8 -686 23 -52 51 -63 104 -41 123 51
335 387 528 838 93 217 105 256 113 347 15 166 62 296 125 341 79 55 198 41
267 -33 74 -77 73 -58 17 -532 -21 -174 -23 -494 -4 -580 16 -71 44 -130 66
-139 101 -38 262 85 416 317 98 148 216 380 259 507 106 316 306 495 535 477
92 -7 157 -39 218 -107 69 -76 116 -223 117 -358 0 -54 -4 -67 -25 -87 -13
-14 -36 -25 -50 -25 -31 0 -43 24 -75 150 -27 105 -44 138 -75 146 -111 28
-238 -201 -252 -451 -15 -287 139 -526 356 -552 191 -22 408 161 590 498 48
89 130 278 160 372 13 37 32 73 43 81 41 29 108 -20 108 -79 0 -32 -56 -183
-121 -328 -166 -370 -395 -639 -633 -747 -72 -33 -193 -60 -266 -60 -182 0
-369 90 -490 235 -54 66 -126 211 -149 304 l-18 74 -28 -49 c-70 -121 -177
-266 -264 -357 -154 -160 -284 -234 -431 -244 -64 -5 -84 -2 -127 17 -154 66
-248 297 -275 680 -3 30 -15 11 -105 -170 -335 -674 -626 -961 -814 -803 -99
84 -180 308 -213 593 -20 173 -28 386 -18 505 l8 100 -35 35 c-20 19 -83 71
-139 115 -220 171 -306 336 -304 585 1 177 45 318 128 410 86 96 187 122 281
73z m748 -2702 c0 -21 -7 -27 -45 -36 -198 -51 -338 -278 -357 -575 -16 -267
88 -458 207 -378 70 47 103 124 104 243 1 87 -23 153 -70 195 -60 52 -120 36
-171 -45 -12 -20 -12 -20 -28 -1 -14 18 -13 23 9 60 84 144 294 98 352 -77 12
-36 15 -74 12 -141 -3 -80 -8 -99 -38 -154 -41 -77 -104 -135 -172 -158 -125
-41 -230 30 -290 197 -20 56 -23 83 -23 219 0 132 3 167 23 234 67 231 214
391 395 431 79 17 92 15 92 -14z m-792 5 c44 -18 94 -77 108 -128 27 -101 -20
-241 -106 -316 l-42 -36 57 -37 c100 -64 139 -150 127 -279 -9 -106 -71 -202
-165 -257 -66 -39 -170 -44 -232 -11 -85 46 -140 150 -140 266 0 50 2 53 22
50 20 -3 25 -13 35 -70 14 -76 30 -113 65 -145 109 -101 279 6 295 187 7 70
-9 120 -50 167 -42 48 -82 63 -166 63 -52 0 -70 4 -75 15 -6 18 2 45 15 45 33
0 125 48 163 84 75 73 102 147 84 229 -13 65 -43 97 -93 103 -49 6 -96 -20
-127 -72 -22 -38 -51 -43 -56 -9 -1 11 10 41 26 66 52 82 170 121 255 85z
m1135 -26 c76 -24 182 -26 242 -5 65 23 82 20 78 -12 -3 -25 -11 -31 -68 -51
-55 -19 -79 -22 -155 -18 -49 3 -99 8 -111 11 -20 6 -22 2 -28 -71 -4 -43 -13
-107 -21 -142 -12 -58 -11 -63 4 -56 165 69 313 30 375 -98 76 -157 42 -378
-80 -508 -126 -135 -306 -147 -394 -27 -40 54 -68 142 -53 165 18 30 33 19 58
-43 14 -34 40 -74 60 -92 30 -29 42 -33 88 -33 97 0 180 76 224 204 23 69 23
215 -1 276 -46 122 -142 147 -288 74 -53 -27 -95 -30 -123 -10 -18 13 -18 15
3 87 25 87 38 164 48 274 3 44 8 83 11 88 8 13 66 7 131 -13z m1377 -552 c13
-20 14 -46 9 -178 -9 -212 7 -257 77 -219 28 14 84 105 119 191 31 78 40 87
60 63 10 -12 9 -24 -5 -63 -51 -135 -132 -255 -196 -287 -101 -53 -173 21
-187 194 l-5 64 -20 -39 c-63 -123 -151 -161 -195 -84 -9 17 -19 30 -22 30 -3
0 -13 -12 -22 -27 -26 -45 -90 -104 -133 -124 -97 -45 -204 -5 -258 96 -32 59
-31 182 2 248 46 95 146 133 204 78 27 -24 53 -110 43 -136 -10 -27 -34 -16
-46 23 -18 55 -28 61 -54 30 -54 -62 -54 -173 0 -237 77 -92 198 -6 274 195
49 130 128 192 189 147 35 -27 41 -70 9 -75 -29 -4 -75 -92 -84 -163 l-7 -50
26 24 c28 25 74 127 101 222 9 31 26 65 37 77 26 28 64 28 84 0z m-843 -405
c35 -31 16 -103 -27 -103 -42 0 -62 72 -29 104 20 20 33 20 56 -1z"/>
<path d="M3435 4111 c-98 -59 -176 -236 -239 -542 -25 -120 -59 -370 -51 -377
9 -9 136 146 215 263 189 280 263 576 163 654 -32 26 -49 26 -88 2z"/>
<path d="M4124 4763 c-41 -45 -59 -123 -59 -263 1 -131 15 -198 54 -249 l18
-24 27 109 c50 211 58 374 21 430 -20 31 -30 30 -61 -3z"/>
</g>
</svg>
